<?xml version="1.0" standalone="no"?>
<!DOCTYPE svg PUBLIC "-//W3C//DTD SVG 20010904//EN"
 "http://www.w3.org/TR/2001/REC-SVG-20010904/DTD/svg10.dtd">
<svg version="1.0" xmlns="http://www.w3.org/2000/svg"
 width="626.000000pt" height="626.000000pt" viewBox="0 0 626.000000 626.000000"
 preserveAspectRatio="xMidYMid meet">

<g transform="translate(0.000000,626.000000) scale(0.100000,-0.100000)"
fill="#000000" stroke="none">
<path d="M4159 5851 c-36 -10 -70 -21 -75 -24 -8 -5 -155 -45 -404 -110 -802
-212 -900 -242 -1047 -324 -108 -60 -123 -98 -77 -200 67 -150 157 -400 187
-518 3 -11 8 -30 12 -41 5 -20 1 -22 -57 -29 -237 -26 -457 -193 -578 -440
-74 -149 -88 -216 -101 -454 -14 -262 -6 -1722 10 -1871 42 -389 132 -631 290
-785 l51 -49 0 -151 c0 -82 -3 -160 -6 -171 -5 -20 -15 -22 -112 -28 -463 -29
-836 -83 -849 -123 -9 -25 165 -60 432 -87 519 -54 1598 -48 2110 10 249 29
325 82 185 129 -57 19 -223 44 -292 45 l-48 0 0 241 0 242 73 76 c85 90 155
192 204 298 70 153 124 436 144 759 16 260 16 1219 0 1369 -34 331 -120 547
-284 722 -160 169 -335 250 -582 271 l-80 7 3 39 c4 45 23 79 63 107 l28 20
41 -45 c49 -53 87 -71 135 -62 62 12 70 63 29 197 -32 105 -36 202 -11 244 10
17 43 48 74 70 30 22 66 50 80 63 14 13 98 50 187 83 88 34 206 82 261 109 55
26 118 53 140 60 22 7 44 16 48 20 10 9 -26 189 -55 283 -25 76 -23 76 -129
48z m95 -83 c9 -40 19 -84 23 -96 6 -23 5 -24 -53 -20 -56 3 -59 2 -58 -19 0
-13 -2 -23 -6 -23 -9 0 -53 166 -48 181 3 9 87 43 119 48 4 1 14 -32 23 -71z
m-164 -40 c16 -73 24 -154 15 -146 -4 4 -19 2 -34 -3 -14 -6 -114 -33 -221
-60 -278 -71 -321 -86 -277 -102 6 -2 -19 -19 -58 -36 -38 -18 -92 -43 -120
-56 -27 -12 -70 -31 -95 -40 -25 -9 -52 -20 -60 -23 -13 -5 -13 -3 -1 11 16
20 14 20 -27 6 -56 -19 -86 -97 -67 -172 6 -22 4 -26 -8 -22 -8 4 -17 -1 -20
-9 -8 -19 -47 -21 -47 -3 0 9 -11 12 -37 9 -36 -5 -37 -5 -13 -15 31 -12 12
-21 -35 -15 l-34 4 54 -104 c31 -59 46 -97 36 -88 -11 10 -27 34 -36 54 -34
72 -178 333 -182 328 -2 -2 0 -21 6 -43 28 -106 34 -162 21 -206 -11 -42 -9
-55 44 -238 87 -307 85 -302 134 -312 35 -7 47 -4 80 16 30 20 42 36 55 77 21
64 21 99 3 126 -20 28 -30 174 -17 259 14 98 54 169 125 227 106 85 265 155
406 177 36 6 126 36 200 67 74 30 159 63 188 71 34 11 52 21 52 32 0 14 2 14
10 1 16 -24 13 -26 -52 -50 -35 -12 -106 -42 -158 -67 -52 -24 -167 -69 -255
-100 -183 -63 -295 -118 -359 -174 -54 -48 -102 -140 -111 -214 -8 -60 12
-215 28 -215 10 0 6 -244 -4 -254 -3 -3 -28 -3 -55 1 -27 3 -43 8 -36 11 6 2
12 7 12 12 0 5 -25 0 -56 -11 -31 -11 -70 -19 -87 -17 l-30 3 -67 230 c-90
309 -135 445 -181 537 -38 76 -50 145 -31 175 13 21 104 60 222 96 63 20 340
97 615 172 275 75 505 138 510 140 34 12 44 4 55 -47z m-1432 -409 c-10 -44
-9 -50 24 -110 20 -35 47 -96 61 -134 26 -72 197 -635 197 -648 0 -4 -13 -7
-30 -7 -23 0 -30 5 -30 19 0 20 -72 308 -109 435 -24 82 -46 113 -36 51 5 -29
-7 -10 -42 70 -27 61 -67 147 -88 193 -44 96 -41 115 22 155 21 14 39 24 40
23 1 0 -3 -22 -9 -47z m956 -105 c-121 -81 -137 -140 -88 -333 31 -122 29
-165 -5 -169 -19 -3 -41 14 -111 89 l-88 93 24 38 c13 21 24 40 24 43 0 10 77
118 112 157 38 42 133 108 156 108 8 0 -3 -12 -24 -26z m-414 -104 c0 -5 -10
-10 -22 -9 -22 0 -22 1 -3 9 11 5 21 9 23 9 1 1 2 -3 2 -9z m107 -256 l36 -33
-46 -44 -45 -44 -6 36 c-3 20 -6 60 -6 90 0 59 -4 60 67 -5z m-175 -201 c19
-17 24 -58 9 -68 -6 -3 -9 7 -8 22 2 26 -1 28 -36 28 -40 0 -44 4 -25 23 17
17 38 15 60 -5z m-22 -39 c0 -8 -4 -12 -10 -9 -5 3 -10 10 -10 16 0 5 5 9 10
9 6 0 10 -7 10 -16z m269 -40 c20 -4 22 -9 17 -36 -3 -17 -7 -32 -9 -33 -1 -1
-30 0 -64 3 l-63 4 0 38 0 38 48 -5 c26 -2 58 -6 71 -9z m-599 -20 c16 -41 13
-44 -47 -45 -44 -1 -52 -3 -33 -9 l25 -8 -27 -1 c-21 -1 -28 5 -37 31 -15 44
-10 47 92 56 10 1 21 -8 27 -24z m718 -3 c24 -5 45 -11 47 -13 3 -2 -1 -21 -7
-41 -9 -29 -15 -36 -27 -31 -9 4 -35 12 -58 18 -39 10 -43 13 -43 42 0 36 7
46 29 39 9 -2 35 -9 59 -14z m-853 -13 c4 -19 2 -43 -5 -68 -3 -12 -19 37 -19
63 -1 33 17 36 24 5z m-45 -31 c0 -38 -3 -44 -31 -54 -28 -11 -31 -10 -40 13
-16 43 -11 62 19 72 47 18 52 15 52 -31z m1014 8 c38 -16 43 -29 25 -69 l-11
-24 -42 19 c-22 10 -40 21 -40 24 1 3 4 19 8 35 6 34 11 35 60 15z m-1102 -45
c3 -33 0 -43 -19 -55 -24 -16 -30 -12 -43 35 -7 25 -5 32 13 45 34 24 45 18
49 -25z m1225 -26 c4 -12 -6 -43 -23 -72 -2 -2 -16 4 -33 14 -33 19 -37 36
-21 79 10 25 10 25 40 10 17 -9 34 -23 37 -31z m-1294 -16 c6 -39 3 -46 -29
-78 l-35 -35 -25 28 c-13 15 -24 32 -24 37 0 10 89 90 100 90 4 0 10 -19 13
-42z m1394 -52 l58 -54 -34 -36 c-19 -20 -38 -36 -43 -36 -4 0 -25 17 -48 38
-22 22 -42 37 -45 34 -3 -3 -5 1 -5 9 1 23 38 99 49 99 6 0 36 -24 68 -54z
m-584 -17 c0 -19 -1 -37 -2 -41 -1 -5 -39 -8 -86 -8 -78 0 -85 2 -85 20 0 15
7 20 33 22 17 1 -15 4 -72 7 -69 4 -106 10 -108 18 -3 9 32 13 144 15 194 4
178 7 176 -33z m-914 -59 c-4 -8 -31 -41 -59 -72 -28 -32 -48 -63 -45 -69 4
-6 -7 -3 -24 5 -17 9 -31 20 -31 25 0 11 77 120 108 153 l25 28 17 -28 c11
-16 14 -33 9 -42z m495 46 c4 -15 18 -29 38 -37 l33 -13 -32 -3 c-18 -3 -47 0
-66 5 -21 6 -40 6 -50 0 -9 -5 -69 -11 -134 -14 l-118 -5 40 19 c52 24 106 42
175 58 88 19 107 18 114 -10z m531 4 c186 -27 286 -71 380 -166 74 -75 118
-147 163 -267 79 -211 96 -403 87 -997 -7 -492 -20 -789 -40 -960 -32 -260
-59 -360 -124 -460 l-36 -55 -5 1095 -5 1095 -33 67 c-60 122 -214 242 -375
293 l-72 23 -9 57 c-8 48 -7 59 6 66 9 5 22 25 28 43 9 28 8 40 -4 65 -9 16
-24 32 -34 35 -14 5 -17 14 -14 41 2 19 7 35 11 35 3 0 38 -5 76 -10z m595
-116 c0 -15 -28 -26 -42 -17 -6 3 -8 2 -5 -4 4 -6 -5 -15 -20 -22 -23 -10 -25
-10 -15 2 10 11 9 17 -2 27 -9 6 -21 8 -27 4 -15 -9 -6 7 29 55 l25 34 28 -34
c16 -19 29 -39 29 -45z m-1156 40 c28 -11 18 -34 -14 -34 -23 0 -30 4 -30 20
0 20 15 25 44 14z m460 -4 c28 -10 42 -46 32 -85 -10 -40 -26 -29 -26 19 l0
43 -42 6 c-24 3 -79 1 -123 -3 -109 -12 -175 -12 -175 0 0 6 26 11 58 12 l57
1 -65 7 c-48 5 -22 7 97 8 89 1 173 -2 187 -8z m-561 -22 c-2 -5 -3 -13 -3
-20 0 -9 -3 -9 -12 0 -8 8 -15 9 -25 1 -14 -12 -43 -5 -43 10 0 5 8 11 18 13
29 6 67 3 65 -4z m47 8 c0 -15 -14 -35 -21 -30 -15 9 -10 34 6 34 8 0 15 -2
15 -4z m138 -43 c2 -26 -1 -43 -7 -43 -6 0 -11 11 -11 24 0 13 -7 26 -15 30
-25 9 -18 38 8 34 18 -2 23 -10 25 -45z m-421 -14 c0 -29 6 -55 12 -59 20 -11
353 -31 365 -21 6 5 23 9 38 8 27 -2 28 -4 28 -54 0 -49 -2 -53 -27 -58 -62
-14 -174 -58 -233 -93 -85 -49 -210 -173 -246 -242 l-29 -55 -5 -1130 -5
-1130 -27 85 c-72 221 -91 584 -86 1615 4 686 6 778 22 843 21 89 44 144 92
219 27 43 91 123 98 123 1 0 2 -23 3 -51z m51 27 c-8 -6 -16 -15 -17 -21 -6
-23 -11 -16 -11 12 0 27 3 30 21 26 19 -5 20 -8 7 -17z m52 9 c0 -8 -7 -15
-15 -15 -8 0 -15 7 -15 15 0 8 7 15 15 15 8 0 15 -7 15 -15z m40 -1 c0 -9 -5
-14 -12 -12 -18 6 -21 28 -4 28 9 0 16 -7 16 -16z m193 -11 c-7 -2 -19 -2 -25
0 -7 3 -2 5 12 5 14 0 19 -2 13 -5z m1221 -82 c20 -38 36 -75 36 -83 0 -15
-68 -53 -78 -43 -3 3 0 5 6 5 7 0 12 7 12 16 0 20 -60 127 -73 133 -11 4 32
40 49 41 6 0 28 -31 48 -69z m-1827 7 l20 -23 -27 -51 c-25 -47 -28 -50 -54
-41 -15 5 -26 12 -24 16 2 4 14 32 27 64 14 31 28 57 31 57 4 0 16 -10 27 -22z
m1073 -69 l0 -49 -92 2 c-83 2 -85 2 -25 5 l67 4 0 34 0 35 -50 0 c-75 0 -60
19 18 22 37 2 70 2 75 0 4 -2 7 -25 7 -53z m-1141 -62 c6 -8 7 -17 2 -23 -5
-5 -11 -25 -15 -44 -5 -35 -5 -35 8 4 7 22 18 42 24 44 15 5 15 5 -3 -65 -8
-31 -15 -71 -15 -89 0 -28 -4 -32 -31 -36 l-32 -5 6 72 c5 75 25 155 37 155 4
0 12 -6 19 -13z m1978 -68 l23 -64 -21 -17 c-12 -10 -25 -18 -29 -18 -4 0 -19
31 -32 70 l-25 70 21 14 c12 8 25 14 31 12 5 -1 20 -31 32 -67z m37 -130 c11
-57 8 -66 -23 -71 -27 -4 -31 -1 -38 31 -8 32 -6 38 16 53 36 23 38 22 45 -13z
m-894 -4 c7 -9 22 -12 38 -9 29 6 159 -57 155 -74 -1 -6 4 -13 13 -16 10 -4
13 -2 8 6 -4 6 4 3 18 -8 l25 -19 -30 -10 c-17 -5 -33 -17 -35 -25 -4 -11 -1
-10 12 3 24 23 78 22 100 -2 10 -11 24 -37 32 -58 8 -23 13 -30 14 -18 1 18 1
19 11 2 5 -9 7 -22 3 -29 -4 -7 -3 -8 4 -4 9 5 12 -46 12 -198 l0 -206 -65 0
-65 0 0 128 c-1 138 -11 243 -29 282 -23 50 -41 75 -53 76 -25 2 -48 16 -41
27 3 6 1 7 -5 3 -6 -4 -23 -4 -37 0 -22 5 -24 9 -13 23 12 14 11 14 -4 2 -15
-11 -31 -9 -115 20 -100 33 -131 49 -99 49 16 0 16 2 6 15 -7 9 -20 13 -29 10
-12 -5 -13 -3 -4 6 6 6 40 14 75 16 35 3 65 9 66 14 5 13 18 11 32 -6z m-1170
-94 c0 -39 -4 -73 -10 -76 -6 -4 -10 22 -10 69 0 44 4 76 10 76 6 0 10 -30 10
-69z m46 53 c-3 -9 -6 -40 -6 -70 0 -41 -4 -54 -15 -54 -20 0 -22 126 -2 133
23 10 29 7 23 -9z m2039 -75 c8 -46 8 -47 -33 -58 -30 -9 -30 -9 -34 35 -3 39
0 45 22 53 38 14 38 14 45 -30z m-2085 -139 c0 -56 -3 -70 -15 -70 -12 0 -15
14 -15 63 0 35 3 67 7 70 17 18 23 1 23 -63z m40 -2 c0 -54 -3 -68 -15 -68
-12 0 -15 14 -15 68 0 54 3 69 15 69 12 0 15 -15 15 -69z m2058 29 c3 -35 2
-37 -26 -37 -25 0 -30 5 -34 29 -3 23 1 32 16 40 32 15 41 8 44 -32z m2 -116
c0 -57 -1 -58 -25 -53 -21 4 -25 10 -25 43 0 21 -6 41 -12 46 -11 7 8 15 55
22 4 0 7 -25 7 -58z m-2105 -115 c-4 -58 -11 -106 -16 -106 -10 0 -12 213 -2
224 19 18 24 -20 18 -118z m41 37 c-3 -42 -6 -91 -6 -110 0 -24 -5 -33 -16
-33 -11 0 -14 5 -10 16 3 9 6 58 6 110 0 81 2 94 16 94 15 0 16 -10 10 -77z
m2064 -124 l0 -119 -25 0 -25 0 0 124 0 123 25 -5 c25 -4 25 -4 25 -123z
m-2110 -130 c0 -53 -4 -89 -10 -89 -6 0 -10 39 -10 96 0 61 4 93 10 89 6 -3
10 -46 10 -96z m40 6 c0 -74 -2 -85 -17 -85 -15 0 -16 2 -3 10 10 6 11 10 3
10 -14 0 -19 131 -6 143 18 18 23 0 23 -78z m1537 -922 c2 -496 -1 -904 -5
-907 -21 -13 -408 -27 -542 -20 -80 4 -137 10 -127 12 15 3 17 16 17 91 0 108
-7 149 -28 153 -8 2 65 4 164 4 173 2 355 22 393 44 11 6 6 8 -19 5 -74 -9
-381 -12 -500 -5 -114 6 -118 7 -42 8 53 1 81 6 77 12 -4 7 61 10 187 10 106
0 210 3 231 6 l37 7 0 247 0 248 -215 0 c-124 1 -223 6 -233 11 -14 9 -12 11
13 12 18 1 23 3 12 6 -14 4 -16 8 -6 19 12 15 6 19 -41 27 -14 2 43 5 125 7
83 1 179 5 215 9 53 5 32 8 -115 14 -99 4 -196 5 -215 2 l-35 -6 30 15 30 14
-47 1 c-26 1 -50 6 -54 13 -5 8 -2 9 10 5 42 -16 464 -5 511 14 11 4 -104 9
-255 10 -151 1 -259 5 -240 9 22 5 27 8 13 9 -12 0 -25 6 -29 13 -5 7 -2 9 8
5 37 -13 215 -18 376 -8 96 5 176 12 180 15 16 16 -30 19 -287 17 l-278 -2 0
23 c0 23 0 23 86 16 91 -8 432 -1 466 10 40 12 -80 20 -322 21 l-243 1 0 138
c0 75 -5 171 -10 212 -6 41 -10 130 -11 198 l0 122 -81 0 -81 0 7 -632 c9
-875 9 -1163 -1 -1163 -4 0 -9 406 -11 902 l-2 903 367 3 c203 1 402 2 443 2
l75 0 2 -902z m533 802 c0 -87 -3 -105 -15 -105 -11 0 -15 13 -16 53 0 28 -4
73 -8 99 -8 47 -6 51 32 57 4 0 7 -46 7 -104z m-2082 5 c15 0 17 -13 17 -95 0
-83 -2 -95 -17 -95 -15 0 -18 13 -21 93 l-3 92 -2 -97 c-3 -136 -22 -128 -22
8 0 93 2 105 16 100 9 -3 23 -6 32 -6z m2080 -257 l-3 -118 -32 -2 -33 -3 2
113 2 112 6 -95 c3 -52 7 -90 9 -85 1 6 6 1 11 -10 6 -13 9 18 9 87 1 103 0
107 -21 111 -14 3 -8 5 15 6 l38 1 -3 -117z m-2108 -73 c0 -73 -4 -120 -10
-120 -6 0 -10 47 -10 120 0 73 4 120 10 120 6 0 10 -47 10 -120z m30 80 c5 31
7 6 8 -77 2 -103 0 -123 -13 -123 -13 0 -15 20 -13 123 1 67 4 102 7 77 l5
-45 6 45z m2073 -207 c-3 -32 -6 -59 -7 -59 0 -1 -14 0 -31 3 -30 4 -30 5 -27
59 4 54 4 54 37 54 l34 0 -6 -57z m-2057 -117 l2 -92 -34 4 -34 4 0 98 0 98
33 -10 32 -10 1 -92z m1586 -711 c3 -424 2 -687 -2 -585 -8 189 -13 1367 -6
1359 2 -2 6 -350 8 -774z m468 660 l0 -75 -32 1 c-18 1 -25 3 -15 6 14 4 17
16 17 70 0 53 -3 64 -15 60 -8 -4 -17 -2 -20 3 -4 6 9 10 29 10 l36 0 0 -75z
m-2098 -138 l2 -82 3 78 c3 69 6 77 23 77 18 0 20 -7 20 -79 l0 -79 -30 -4
c-17 -3 -32 -2 -35 0 -3 3 -5 45 -5 94 0 114 19 109 22 -5z m2095 -65 c-4 -46
-8 -86 -9 -87 -2 -2 -14 -1 -28 2 -25 4 -25 6 -22 88 3 77 5 84 25 87 12 2 26
2 31 0 5 -3 6 -43 3 -90z m-2051 -65 c1 -1 4 -37 7 -79 4 -72 3 -78 -14 -78
-14 0 -19 8 -21 33 l-1 32 -4 -32 c-6 -46 -23 -41 -23 6 0 21 -3 60 -7 86 l-6
48 33 -7 c19 -3 34 -7 36 -9z m1351 -474 c-12 -11 -123 -15 -261 -8 l-156 7 2
67 2 66 3 -62 4 -63 69 0 c63 0 70 2 70 20 0 15 -7 20 -26 20 -14 0 -23 3 -21
8 3 4 -10 18 -29 32 -31 23 -33 29 -32 80 0 30 3 42 5 25 7 -58 13 -75 38
-100 14 -13 36 -27 48 -29 95 -20 153 -12 193 25 35 33 33 94 -6 157 -30 49
-39 92 -20 92 6 0 10 -15 11 -32 1 -33 1 -33 10 6 11 45 -3 101 -27 110 -13 5
-13 3 1 -16 8 -13 15 -32 15 -43 0 -16 -6 -13 -33 19 l-33 39 -34 -16 c-31
-16 -34 -16 -46 1 -10 14 -12 7 -7 -43 5 -55 3 -63 -26 -102 -24 -33 -31 -53
-31 -87 0 -64 30 -86 117 -86 77 0 103 12 103 46 0 31 -23 87 -50 121 -24 30
-26 66 -5 83 13 11 14 8 9 -19 -5 -24 -1 -40 19 -69 80 -114 51 -182 -78 -182
-67 0 -109 20 -130 60 -22 43 -18 69 20 130 39 60 46 119 19 158 -12 17 -25
22 -60 22 -39 0 -44 -3 -45 -22 -1 -22 -1 -22 -8 2 l-7 25 206 5 205 5 3 -224
c1 -123 1 -226 -1 -228z m689 370 c-11 -88 -13 -93 -49 -93 -24 0 -28 3 -19
12 7 7 12 38 12 69 0 46 3 58 18 62 43 12 45 10 38 -50z m-1008 -88 c-29 -43
-36 -38 -9 6 12 19 22 52 23 74 l1 40 4 -43 c3 -34 -1 -52 -19 -77z m100 30
c-2 -50 9 -84 34 -112 13 -14 18 -28 13 -43 -4 -12 -1 -28 6 -37 11 -13 11
-15 -6 -12 -15 3 -21 14 -23 39 -2 19 -9 49 -17 67 -8 17 -15 39 -15 50 0 15
-2 16 -10 3 -15 -24 -12 -55 10 -82 27 -35 7 -54 -24 -22 -20 19 -20 71 -1
104 8 14 15 45 15 70 0 33 3 41 10 30 6 -8 9 -33 8 -55z m-187 -45 c-9 -23
-10 -21 -10 16 -1 22 2 44 7 48 11 12 14 -37 3 -64z m-950 20 c16 0 19 -7 18
-37 l-2 -38 -7 35 -7 35 -2 -40 c-2 -64 10 -114 28 -118 11 -3 10 -5 -5 -6
-23 -1 -34 29 -34 98 0 20 -5 43 -11 51 -10 15 -9 0 7 -110 3 -24 2 -40 -4
-40 -10 0 -15 22 -28 129 -6 48 -4 53 11 48 9 -4 25 -7 36 -7z m2025 -57 c-2
-10 -7 -32 -11 -49 -4 -21 -14 -34 -28 -38 -34 -9 -40 -7 -28 8 6 7 12 32 14
55 2 38 4 41 30 41 22 0 27 -4 23 -17z m-1119 -180 c-2 -37 -3 -9 -3 62 0 72
1 102 3 68 2 -34 2 -93 0 -130z m1088 40 c-8 -35 -6 -34 -41 -24 -16 5 -21 10
-12 10 11 1 15 6 12 15 -5 13 8 21 40 25 4 0 5 -11 1 -26z m-1977 -11 c-24 -3
-41 -22 -20 -22 4 0 6 -15 4 -33 -2 -22 2 -39 13 -50 15 -16 15 -17 -3 -17
-21 0 -32 33 -32 100 0 36 1 36 33 31 31 -5 31 -6 5 -9z m1956 -69 c-12 -48
-24 -74 -31 -70 -5 2 -16 7 -26 10 -17 6 -17 9 -3 29 9 12 16 30 16 40 0 13 8
18 25 18 23 0 25 -3 19 -27z m-1936 -108 c2 -20 7 -46 12 -60 6 -16 6 -27 -1
-31 -16 -9 -25 5 -38 58 -15 62 -14 68 7 68 13 0 19 -9 20 -35z m1891 6 c11
-7 11 -16 -4 -55 -20 -53 -41 -74 -56 -59 -7 7 -4 24 10 54 12 23 21 49 21 56
0 15 9 16 29 4z m-1849 -125 c0 -19 -32 -30 -42 -14 -13 21 -9 28 17 28 15 0
25 -6 25 -14z m1784 -24 c6 -11 -49 -93 -99 -147 -35 -39 -35 -38 9 27 24 36
42 69 38 74 -4 4 -2 4 5 0 14 -8 37 29 28 44 -3 6 -2 10 4 10 5 0 12 -4 15 -8z
m-1764 -47 c7 -20 27 -59 46 -87 34 -51 34 -78 0 -65 -12 5 -96 163 -96 181 0
3 9 6 19 6 13 0 23 -11 31 -35z m643 -62 c-7 -2 -19 -2 -25 0 -7 3 -2 5 12 5
14 0 19 -2 13 -5z m785 -340 l-3 -318 -37 -3 -38 -3 2 93 2 93 6 -90 c4 -55 7
30 8 218 2 239 -1 307 -10 308 -11 1 28 12 65 18 4 0 7 -142 5 -316z m-1272
154 c5 -24 -1 -50 -8 -36 -2 2 -23 26 -48 52 -44 47 -44 49 -25 63 18 14 22
12 47 -18 15 -18 30 -46 34 -61z"/>
<path d="M3090 5080 c0 -5 5 -10 10 -10 6 0 10 5 10 10 0 6 -4 10 -10 10 -5 0
-10 -4 -10 -10z"/>
<path d="M2826 5025 c8 -37 14 -45 14 -19 0 10 -5 26 -10 34 -8 11 -9 7 -4
-15z"/>
<path d="M3250 4856 c0 -2 7 -7 16 -10 8 -3 12 -2 9 4 -6 10 -25 14 -25 6z"/>
<path d="M3747 4339 c7 -9 9 -20 5 -24 -4 -5 -1 -5 6 -1 6 4 12 3 12 -2 0 -5
9 -12 20 -15 11 -3 20 -13 20 -22 0 -9 5 -13 10 -10 14 9 7 18 -43 57 -23 18
-36 26 -30 17z"/>
<path d="M2177 4111 c-9 -16 -17 -33 -17 -38 0 -4 9 7 21 26 11 18 18 35 17
37 -2 2 -12 -10 -21 -25z"/>
<path d="M2101 3894 c0 -11 3 -14 6 -6 3 7 2 16 -1 19 -3 4 -6 -2 -5 -13z"/>
<path d="M2092 3845 c0 -16 2 -22 5 -12 2 9 2 23 0 30 -3 6 -5 -1 -5 -18z"/>
<path d="M4132 3680 c0 -14 2 -19 5 -12 2 6 2 18 0 25 -3 6 -5 1 -5 -13z"/>
<path d="M4142 3585 c0 -16 2 -22 5 -12 2 9 2 23 0 30 -3 6 -5 -1 -5 -18z"/>
<path d="M3173 3019 c-64 -15 -148 -96 -168 -162 -40 -135 13 -269 129 -323
92 -43 186 -23 259 55 70 75 92 168 63 265 -38 124 -158 194 -283 165z m45
-54 c-3 -3 -9 2 -12 12 -6 14 -5 15 5 6 7 -7 10 -15 7 -18z m94 -41 c32 -16
77 -89 80 -128 2 -23 6 -27 26 -23 17 3 22 0 20 -12 -2 -11 -12 -15 -33 -13
-45 5 -74 29 -95 77 -10 24 -28 48 -39 54 -11 6 -22 21 -24 33 -4 20 -4 20 -6
-4 -1 -33 -15 -43 -31 -23 -17 21 -33 6 -59 -55 -19 -44 -24 -49 -41 -40 -31
17 -37 11 -10 -11 14 -11 19 -18 12 -14 -19 10 -72 -14 -72 -32 0 -12 9 -14
44 -9 25 4 47 3 50 -2 7 -11 -80 -35 -95 -27 -5 4 -9 27 -8 53 0 26 3 41 6 35
10 -25 33 -14 33 16 0 25 29 75 53 92 5 4 6 13 2 20 -6 9 -3 11 9 6 15 -6 26
-3 76 24 18 10 65 2 102 -17z m-232 -14 c-6 -11 -9 -24 -6 -29 3 -4 -1 -8 -9
-8 -19 0 -19 2 1 32 20 30 29 33 14 5z m313 -187 c38 -6 42 -10 29 -30 -9 -15
-92 6 -92 23 0 7 -6 15 -12 18 -7 4 -2 4 12 1 14 -4 42 -9 63 -12z m-239 -48
c26 -20 115 -19 143 0 18 12 27 13 59 2 21 -8 40 -19 42 -26 6 -19 -77 -90
-115 -97 -19 -4 -37 -4 -40 0 -4 3 5 6 20 6 26 0 50 20 25 20 -7 1 1 8 17 17
17 10 35 16 41 15 6 -1 16 4 23 11 9 11 5 13 -17 12 -15 -1 -37 -7 -49 -13
-38 -21 -114 -14 -165 13 -27 14 -49 21 -53 15 -3 -5 -12 -7 -20 -4 -21 8 -9
22 28 33 42 12 39 12 61 -4z m56 5 c12 -8 12 -10 -5 -10 -11 0 -27 5 -35 10
-12 8 -12 10 5 10 11 0 27 -5 35 -10z m-82 -90 c7 0 12 -4 12 -10 0 -18 -16
-11 -41 17 -17 20 -18 23 -3 10 11 -9 26 -17 32 -17z m64 -10 c-2 -7 3 -17 10
-21 9 -6 6 -9 -11 -9 -18 0 -22 4 -17 17 4 9 1 20 -6 25 -9 6 -7 8 7 5 11 -2
19 -9 17 -17z m78 2 c0 -5 -7 -9 -15 -9 -8 0 -12 4 -9 9 3 4 9 8 15 8 5 0 9
-4 9 -8z"/>
<path d="M3320 2589 c0 -5 5 -7 10 -4 6 3 10 8 10 11 0 2 -4 4 -10 4 -5 0 -10
-5 -10 -11z"/>
<path d="M3148 1353 c29 -2 74 -2 100 0 26 2 2 3 -53 3 -55 0 -76 -1 -47 -3z"/>
<path d="M4120 2575 c0 -33 4 -45 15 -45 11 0 15 12 15 45 0 33 -4 45 -15 45
-11 0 -15 -12 -15 -45z"/>
<path d="M2074 2465 c0 -49 1 -71 3 -48 2 23 2 64 0 90 -2 26 -3 8 -3 -42z"/>
<path d="M4125 2205 c0 -41 3 -75 8 -75 4 0 7 34 7 75 0 41 -3 75 -7 75 -5 0
-8 -34 -8 -75z"/>
<path d="M2072 2115 c0 -16 2 -22 5 -12 2 9 2 23 0 30 -3 6 -5 -1 -5 -18z"/>
<path d="M4122 2045 c0 -16 2 -22 5 -12 2 9 2 23 0 30 -3 6 -5 -1 -5 -18z"/>
<path d="M4050 1660 c0 -11 2 -20 4 -20 2 0 6 9 9 20 3 11 1 20 -4 20 -5 0 -9
-9 -9 -20z"/>
<path d="M4010 1531 c-12 -24 -13 -34 -1 -27 9 6 22 46 15 46 -2 0 -8 -9 -14
-19z"/>
<path d="M2103 663 c9 -2 23 -2 30 0 6 3 -1 5 -18 5 -16 0 -22 -2 -12 -5z"/>
</g>
</svg>
